<?xml version="1.0" encoding="iso-8859-1"?>
<!-- Generator: Adobe Illustrator 19.0.0, SVG Export Plug-In . SVG Version: 6.00 Build 0)  -->
<svg version="1.1" id="Capa_1" xmlns="http://www.w3.org/2000/svg" xmlns:xlink="http://www.w3.org/1999/xlink" x="0px" y="0px"
	 viewBox="0 0 512 512" style="enable-background:new 0 0 512 512;" xml:space="preserve">
<g>
	<g>
		<path d="M461.031,213.371l19.883-26.486L150.619,54.878L77.883,236.873l124.837,49.893l-15.347,38.278
			c-1.229-0.095-2.466-0.158-3.718-0.158c-21.264,0-39.333,13.895-45.632,33.078H90.355v-66.272H0v165.43h90.355v-69.262h47.667
			c6.3,19.183,24.369,33.077,45.632,33.077c26.482,0,48.026-21.545,48.026-48.026c0-14.524-6.49-27.552-16.709-36.366l15.511-38.686
			l128.555,51.379l19.883-26.487l84.075,33.601L512,233.741L461.031,213.371z M60.459,427.225H29.897V321.589h30.562V427.225z
			 M183.655,391.042c-9.997,0-18.13-8.133-18.13-18.129c0-9.997,8.133-18.13,18.13-18.13s18.129,8.133,18.129,18.13
			C201.783,382.909,193.65,391.042,183.655,391.042z M348.873,312.982L116.74,220.206l50.546-126.471l266.282,106.423
			L348.873,312.982z M446.328,317.498l-48.817-19.51l44.929-59.851l30.701,12.27L446.328,317.498z"/>
	</g>
</g>
<g>
	<g>
		<rect x="315.4" y="256.185" transform="matrix(0.3711 -0.9286 0.9286 0.3711 -44.016 477.2758)" width="29.897" height="29.897"/>
	</g>
</g>
<g>
</g>
<g>
</g>
<g>
</g>
<g>
</g>
<g>
</g>
<g>
</g>
<g>
</g>
<g>
</g>
<g>
</g>
<g>
</g>
<g>
</g>
<g>
</g>
<g>
</g>
<g>
</g>
<g>
</g>
</svg>
